<svg width="48" height="48" viewBox="0 0 48 48" fill="none" xmlns="http://www.w3.org/2000/svg">
<path fill-rule="evenodd" clip-rule="evenodd" d="M48 23.9791C48 27.2933 47.3421 30.4125 46.0262 33.3368C44.7384 36.2332 42.9746 38.7676 40.7349 40.9399C38.4952 43.1123 35.8635 44.8251 32.8399 46.0783C29.8443 47.3594 26.6387 48 23.2231 48C19.8355 48 16.7139 47.3594 13.8583 46.0783C11.0306 44.8251 8.58093 43.1123 6.50919 40.9399C4.46544 38.7676 2.86964 36.2332 1.72178 33.3368C0.573928 30.4125 0 27.2933 0 23.9791C0 19.8851 0.573928 16.3342 1.72178 13.3264C2.86964 10.3185 4.46544 7.82594 6.50919 5.84856C8.58093 3.87119 11.0306 2.40905 13.8583 1.46214C16.7139 0.48738 19.8355 0 23.2231 0C26.6387 0 29.8443 0.543081 32.8399 1.62924C35.8635 2.7154 38.4952 4.28895 40.7349 6.34987C42.9746 8.41079 44.7384 10.9312 46.0262 13.9112C47.3421 16.8634 48 20.2193 48 23.9791ZM32.3317 20.0502C32.6984 24.0979 30.284 27.757 26.657 29.1582L30.1686 38.1405L19.8655 39.064L21.7063 29.602C17.8859 28.8684 14.8529 25.6976 14.4862 21.6498C14.0422 16.7477 17.6771 12.4156 22.6049 11.9739C27.5328 11.5321 31.8876 15.148 32.3317 20.0502Z" fill="black"/>
<style>
path { fill: #000; }
@media (prefers-color-scheme: dark) {
path { fill: #FFF; }
}
</style>
</svg>
