<svg width="137" height="48" viewBox="0 0 137 48" fill="none" xmlns="http://www.w3.org/2000/svg">
<path d="M25.1172 35.8203C22.9766 35.6797 20.8203 35.5703 18.6484 35.4922C16.4766 35.4141 14.2969 35.375 12.1094 35.375C10.25 35.375 8.39062 35.4062 6.53125 35.4688C4.67188 35.5312 2.78906 35.6484 0.882812 35.8203C1.00781 33.0078 1.10156 30.2188 1.16406 27.4531C1.22656 24.6719 1.25781 21.875 1.25781 19.0625C1.25781 15.9219 1.22656 12.7969 1.16406 9.6875C1.10156 6.5625 1.00781 3.47656 0.882812 0.429688H11.2422C11.1797 4.13281 11.1172 7.73438 11.0547 11.2344C11.0234 12.7344 11 14.2812 10.9844 15.875C10.9688 17.4688 10.9453 19.0391 10.9141 20.5859C10.8984 22.1328 10.8828 23.6172 10.8672 25.0391V28.8594L25.1172 28.4609V35.8203Z" fill="black"/>
<path fill-rule="evenodd" clip-rule="evenodd" d="M53.5 22.7656C53.5 24.625 53.1328 26.375 52.3984 28.0156C51.6797 29.6406 50.6953 31.0625 49.4453 32.2812C48.1953 33.5 46.7266 34.4609 45.0391 35.1641C43.3672 35.8828 41.5781 36.2422 39.6719 36.2422C37.7812 36.2422 36.0391 35.8828 34.4453 35.1641C32.8672 34.4609 31.5 33.5 30.3438 32.2812C29.2031 31.0625 28.3125 29.6406 27.6719 28.0156C27.0312 26.375 26.7109 24.625 26.7109 22.7656C26.7109 20.4688 27.0312 18.4766 27.6719 16.7891C28.3125 15.1016 29.2031 13.7031 30.3438 12.5938C31.5 11.4844 32.8672 10.6641 34.4453 10.1328C36.0391 9.58594 37.7812 9.3125 39.6719 9.3125C41.5781 9.3125 43.3672 9.61719 45.0391 10.2266C46.7266 10.8359 48.1953 11.7188 49.4453 12.875C50.6953 14.0312 51.6797 15.4453 52.3984 17.1172C53.1328 18.7734 53.5 20.6562 53.5 22.7656ZM44.7554 20.5613C44.9601 22.8323 43.6126 24.8852 41.5884 25.6713L43.5482 30.7106L37.798 31.2288L38.8253 25.9203C36.6932 25.5087 35.0004 23.7298 34.7958 21.4588C34.548 18.7085 36.5766 16.2781 39.3269 16.0303C42.0771 15.7824 44.5076 17.8111 44.7554 20.5613Z" fill="black"/>
<path d="M73.436 20.5098C73.4727 21.1706 73.514 21.9155 73.4688 22.1328L82.4219 19.4375C82.0625 17.8125 81.4766 16.4141 80.6641 15.2422C79.8516 14.0547 78.8672 13.0859 77.7109 12.3359C76.5703 11.5703 75.2891 11.0078 73.8672 10.6484C72.4453 10.2734 70.9453 10.0859 69.3672 10.0859C67.5859 10.0859 65.8828 10.3203 64.2578 10.7891C62.6484 11.2422 61.2266 11.9609 59.9922 12.9453C58.7734 13.9297 57.7969 15.1797 57.0625 16.6953C56.3281 18.2109 55.9609 20.0234 55.9609 22.1328C55.9609 24.7422 56.3047 26.9453 56.9922 28.7422C57.6953 30.5391 58.6484 32 59.8516 33.125C61.0703 34.2344 62.4922 35.0391 64.1172 35.5391C65.7578 36.0391 67.5078 36.2891 69.3672 36.2891C70.8828 36.2891 72.3281 36.1328 73.7031 35.8203C75.0781 35.5078 76.3203 35.0156 77.4297 34.3438C78.5547 33.6562 79.5234 32.7812 80.3359 31.7188C81.1641 30.6562 81.7969 29.3828 82.2344 27.8984L73.7031 25.0625C73.7202 25.2073 73.6536 26.2815 73.592 27.2739L73.5919 27.2755L73.5919 27.2768C73.5406 28.1031 73.4929 28.8723 73.5 29C73.5084 29.1504 73.5055 29.1668 73.5011 29.1924C73.4973 29.2148 73.4922 29.2442 73.4922 29.375C73.4922 29.6719 73.4844 29.9766 73.4688 30.2891C73.4531 30.6016 73.4297 30.9219 73.3984 31.25C72.6953 31.3281 72.0156 31.3828 71.3594 31.4141C70.7031 31.4297 70.0391 31.4375 69.3672 31.4375C68.6797 31.4375 68.0078 31.4297 67.3516 31.4141C66.7109 31.3828 66.0391 31.3281 65.3359 31.25C64.9922 29.375 64.7188 27.5078 64.5156 25.6484C64.3281 23.7734 64.2344 21.8828 64.2344 19.9766C64.2344 19.1484 64.25 18.3281 64.2812 17.5156C64.3281 16.7031 64.3906 15.875 64.4688 15.0312C65.2188 14.9062 65.9609 14.8203 66.6953 14.7734C67.4297 14.7266 68.1562 14.7031 68.875 14.7031C69.6094 14.7031 70.3203 14.7266 71.0078 14.7734C71.6953 14.8203 72.375 14.9062 73.0469 15.0312C73.125 15.3906 73.1797 15.7422 73.2109 16.0859C73.2422 16.4297 73.2578 16.7812 73.2578 17.1406C73.2578 17.3034 73.2877 17.6615 73.3202 18.0521C73.3658 18.599 73.4167 19.2096 73.3984 19.4375C73.3853 19.5951 73.4095 20.0306 73.436 20.5098Z" fill="black"/>
<path d="M107.688 8.60938C107.578 9.89062 107.312 11.0938 106.891 12.2188C106.469 13.3438 105.93 14.3984 105.273 15.3828C104.633 16.3516 103.906 17.2578 103.094 18.1016C102.281 18.9297 101.43 19.6953 100.539 20.3984C102.148 22.4453 103.531 24.5703 104.688 26.7734C105.844 28.9609 106.844 31.2422 107.688 33.6172L99.625 35.4688C99.4062 33.3438 99 31.2891 98.4062 29.3047C97.8125 27.3047 96.9766 25.3828 95.8984 23.5391C95.3359 23.8516 94.7812 24.1328 94.2344 24.3828C93.7031 24.6172 93.2109 24.8438 92.7578 25.0625V27.1719C92.7578 28.4375 92.7734 29.6797 92.8047 30.8984C92.8516 32.1172 92.875 33.3594 92.875 34.625L86.1016 35.4688C86.1016 29.6719 86.0156 23.8672 85.8438 18.0547C85.6719 12.2422 85.3906 6.42188 85 0.59375H93.7188C93.4844 4.03125 93.2891 7.46094 93.1328 10.8828C92.9766 14.2891 92.875 17.7188 92.8281 21.1719C93.6094 20.5469 94.3047 19.8828 94.9141 19.1797C95.5234 18.4766 96.0625 17.7734 96.5312 17.0703C97 16.3672 97.3984 15.6719 97.7266 14.9844C98.0547 14.2812 98.3359 13.6172 98.5703 12.9922C99.1016 11.5234 99.4531 10.0625 99.625 8.60938H107.688Z" fill="black"/>
<path d="M136.211 21.3125C136.336 18.3438 136.438 14.8125 136.516 10.7188L126.766 10.3203C127.078 12.8984 127.297 15.4766 127.422 18.0547C127.562 20.6328 127.633 23.2266 127.633 25.8359V27.3828C127.633 27.8984 127.617 28.4062 127.586 28.9062C126.82 28.9844 126.047 29.0391 125.266 29.0703C124.5 29.0859 123.703 29.0938 122.875 29.0938H121.375C120.875 29.0781 120.336 29.0469 119.758 29C119.633 27.5312 119.531 26.0625 119.453 24.5938C119.375 23.1094 119.336 21.6172 119.336 20.1172C119.336 18.6641 119.375 17.2109 119.453 15.7578C119.531 14.3047 119.633 12.8438 119.758 11.375L110.172 10.7188C110.219 12.9062 110.242 15.0156 110.242 17.0469C110.242 19.0625 110.32 20.9531 110.477 22.7188C110.633 24.4844 110.914 26.1016 111.32 27.5703C111.742 29.0234 112.398 30.2734 113.289 31.3203C114.195 32.3516 115.383 33.1562 116.852 33.7344C118.32 34.2969 120.188 34.5781 122.453 34.5781C122.938 34.5625 123.445 34.5156 123.977 34.4375C124.43 34.3594 124.953 34.25 125.547 34.1094C126.156 33.9531 126.789 33.7344 127.445 33.4531C127.367 35.0781 127.273 36.6953 127.164 38.3047C127.055 39.9297 126.922 41.5625 126.766 43.2031C125.891 43.3438 125.141 43.4531 124.516 43.5312C123.891 43.6094 123.281 43.6484 122.688 43.6484C122.25 43.6484 121.805 43.625 121.352 43.5781C120.898 43.5312 120.367 43.4688 119.758 43.3906C119.57 42.2969 119.477 41.1641 119.477 39.9922C119.477 39.8047 119.484 39.6094 119.5 39.4062C119.516 39.2188 119.523 39.0156 119.523 38.7969L110.922 38.9844C111.203 39.875 111.492 40.7031 111.789 41.4688C112.102 42.2344 112.461 42.9219 112.867 43.5312C113.273 44.1562 113.742 44.7031 114.273 45.1719C114.82 45.6406 115.469 46.0312 116.219 46.3438C116.984 46.6719 117.875 46.9141 118.891 47.0703C119.906 47.2422 121.094 47.3281 122.453 47.3281C124.484 47.3281 126.281 47.0156 127.844 46.3906C129.406 45.7812 130.734 44.9141 131.828 43.7891C132.922 42.6641 133.766 41.3203 134.359 39.7578C134.969 38.1953 135.32 36.4688 135.414 34.5781C135.555 33 135.695 31.0547 135.836 28.7422C135.961 26.7578 136.086 24.2812 136.211 21.3125Z" fill="black"/>
</svg>
